<svg width="32" height="32" viewBox="0 0 32 32" fill="none" xmlns="http://www.w3.org/2000/svg">
  <!-- Background circle -->
  <circle cx="16" cy="16" r="16" fill="url(#gradient1)"/>
  
  <!-- Building structure -->
  <rect x="8" y="10" width="16" height="16" rx="1.5" fill="white" opacity="0.95"/>
  
  <!-- Building floors -->
  <line x1="8" y1="13" x2="24" y2="13" stroke="#007bff" stroke-width="0.4"/>
  <line x1="8" y1="16" x2="24" y2="16" stroke="#007bff" stroke-width="0.4"/>
  <line x1="8" y1="19" x2="24" y2="19" stroke="#007bff" stroke-width="0.4"/>
  <line x1="8" y1="22" x2="24" y2="22" stroke="#007bff" stroke-width="0.4"/>
  
  <!-- Windows -->
  <rect x="10" y="11" width="1.5" height="1.2" fill="#007bff" opacity="0.7"/>
  <rect x="12.5" y="11" width="1.5" height="1.2" fill="#007bff" opacity="0.7"/>
  <rect x="17.5" y="11" width="1.5" height="1.2" fill="#007bff" opacity="0.7"/>
  <rect x="20" y="11" width="1.5" height="1.2" fill="#007bff" opacity="0.7"/>
  
  <rect x="10" y="14" width="1.5" height="1.2" fill="#007bff" opacity="0.7"/>
  <rect x="12.5" y="14" width="1.5" height="1.2" fill="#007bff" opacity="0.7"/>
  <rect x="17.5" y="14" width="1.5" height="1.2" fill="#007bff" opacity="0.7"/>
  <rect x="20" y="14" width="1.5" height="1.2" fill="#007bff" opacity="0.7"/>
  
  <rect x="10" y="17" width="1.5" height="1.2" fill="#007bff" opacity="0.7"/>
  <rect x="12.5" y="17" width="1.5" height="1.2" fill="#007bff" opacity="0.7"/>
  <rect x="17.5" y="17" width="1.5" height="1.2" fill="#007bff" opacity="0.7"/>
  <rect x="20" y="17" width="1.5" height="1.2" fill="#007bff" opacity="0.7"/>
  
  <rect x="10" y="20" width="1.5" height="1.2" fill="#007bff" opacity="0.7"/>
  <rect x="12.5" y="20" width="1.5" height="1.2" fill="#007bff" opacity="0.7"/>
  <rect x="17.5" y="20" width="1.5" height="1.2" fill="#007bff" opacity="0.7"/>
  <rect x="20" y="20" width="1.5" height="1.2" fill="#007bff" opacity="0.7"/>
  
  <!-- Main entrance -->
  <rect x="14.5" y="22" width="3" height="4" fill="#007bff"/>
  
  <!-- Moon symbol (BlueMoon) -->
  <circle cx="16" cy="6" r="2.5" fill="#ffd700" opacity="0.9"/>
  <circle cx="17.2" cy="6" r="2" fill="#007bff" opacity="0.3"/>
  
  <!-- Gradient definitions -->
  <defs>
    <linearGradient id="gradient1" x1="0%" y1="0%" x2="100%" y2="100%">
      <stop offset="0%" style="stop-color:#007bff;stop-opacity:1" />
      <stop offset="100%" style="stop-color:#0056b3;stop-opacity:1" />
    </linearGradient>
  </defs>
</svg> 